<svg width="166" height="200" viewBox="0 0 166 200" fill="none" xmlns="http://www.w3.org/2000/svg">
<path d="M147.902 66.3898C144.347 61.8025 137.625 61.8247 133.521 65.9284V65.9284C129.426 70.0239 129.517 76.624 132.88 81.3395C150.233 105.671 147.975 139.45 126.106 160.99C101.719 185.377 62.4799 185.377 38.4598 160.99C14.0729 136.603 14.0729 97.3642 38.4598 73.344L77.1487 34.6551L79.6305 32.1733C81.5635 30.2403 82.6495 27.6185 82.6495 24.8847V24.8847C82.6495 15.7017 71.5468 11.1028 65.0534 17.5962L24.341 58.3086C-8.11368 90.7633 -8.11368 143.204 24.341 175.659C56.7958 208.114 109.237 208.114 141.141 175.659C170.918 145.713 173.22 99.0623 147.902 66.3898Z" fill="white"/>
<path d="M111.804 55.008C117.779 55.008 122.622 50.1647 122.622 44.1899C122.622 38.2152 117.779 33.3717 111.804 33.3717C105.829 33.3717 100.986 38.2152 100.986 44.1899C100.986 50.1647 105.829 55.008 111.804 55.008Z" fill="white"/>
</svg>
