<svg width="179" height="200" viewBox="0 0 179 200" fill="none" xmlns="http://www.w3.org/2000/svg">
<path d="M93.1559 8.59691C93.1559 4.76205 97.295 2.35471 100.628 4.25095L176.18 47.2313C177.742 48.1202 178.707 49.7795 178.707 51.5772V84.4368C178.707 88.2988 174.515 90.7028 171.182 88.7522L134.902 67.5216C131.568 65.571 127.376 67.975 127.376 71.837V82.6764C127.376 84.4564 128.323 86.1022 129.861 86.9976L150.395 98.9505C151.919 99.837 152.862 101.46 152.88 103.222L153.145 130.053C153.184 133.917 149.011 136.362 145.658 134.439L134.864 128.249C131.531 126.337 127.376 128.743 127.376 132.586V177.342C127.376 179.128 126.424 180.778 124.878 181.672L100.657 195.666C97.324 197.592 93.1559 195.186 93.1559 191.337V8.59691ZM78.079 4.25094C81.4122 2.35471 85.5513 4.76205 85.5513 8.59691V191.337C85.5513 195.186 81.3833 197.592 78.0499 195.666L53.8294 181.672C52.2832 180.778 51.3308 179.128 51.3308 177.342V71.837C51.3308 67.975 47.1387 65.571 43.8055 67.5216L7.52532 88.7522C4.19207 90.7027 0 88.2988 0 84.4368V51.5772C0 49.7795 0.965074 48.1202 2.52763 47.2313L78.079 4.25094Z" fill="white"/>
</svg>
